<svg id="_x33_0" enable-background="new 0 0 64 64" height="512" viewBox="0 0 64 64" width="512" xmlns="http://www.w3.org/2000/svg" xmlns:xlink="http://www.w3.org/1999/xlink"><linearGradient id="SVGID_1_" gradientUnits="userSpaceOnUse" x1="32" x2="32" y1="63" y2="1"><stop offset="0" stop-color="#9f2fff"/><stop offset="1" stop-color="#0bb1d3"/></linearGradient><path d="m59 23c2.206 0 4-1.794 4-4s-1.794-4-4-4-4 1.794-4 4c0 1.037.392 2.007 1.075 2.734l-4.624 7.266h-12.905l-8.335-12.965 5.326-7.323c.459.182.95.288 1.463.288 2.206 0 4-1.794 4-4s-1.794-4-4-4-4 1.794-4 4c0 .945.337 1.846.915 2.543l-5.424 7.457h-9.633c-.447-1.721-1.999-3-3.858-3-2.206 0-4 1.794-4 4 0 1.026.387 1.989 1.065 2.716l-4.265 6.635c-.572-.223-1.178-.351-1.8-.351-2.757 0-5 2.243-5 5s2.243 5 5 5c.623 0 1.23-.128 1.801-.35l5.988 9.315-5.326 7.323c-.459-.182-.95-.288-1.463-.288-2.206 0-4 1.794-4 4s1.794 4 4 4 4-1.794 4-4c0-.945-.337-1.846-.915-2.543l5.424-7.457h12.945l7.19 11.184c-.398.518-.644 1.151-.644 1.816 0 1.654 1.346 3 3 3 1.302 0 2.402-.839 2.816-2h6.285c.465 2.279 2.484 4 4.899 4 2.757 0 5-2.243 5-5 0-1.37-.559-2.643-1.516-3.571l6.704-10.429-9.001-14.003 4.579-7.197c.394.128.809.2 1.234.2zm0-6c1.103 0 2 .897 2 2s-.897 2-2 2c-.388 0-.756-.106-1.076-.315-.578-.366-.924-.996-.924-1.685 0-1.103.897-2 2-2zm-22-14c1.103 0 2 .897 2 2s-.897 2-2 2c-.43 0-.829-.131-1.183-.396-.511-.363-.817-.962-.817-1.604 0-1.103.897-2 2-2zm-18.142 14h9.596l8.357 13-8.357 13h-12.908l-6.062-9.43c.958-.929 1.516-2.202 1.516-3.57 0-1.37-.559-2.643-1.516-3.571l4.268-6.64c.403.135.822.211 1.248.211 1.859 0 3.411-1.279 3.858-3zm-3.858-3c1.103 0 2 .897 2 2s-.897 2-2 2c-.383 0-.746-.108-1.082-.323-.575-.367-.918-.993-.918-1.677 0-1.103.897-2 2-2zm-12 16c0-1.654 1.346-3 3-3 .575 0 1.134.165 1.621.481.863.553 1.379 1.495 1.379 2.519s-.516 1.966-1.385 2.521c-.481.314-1.04.479-1.615.479-1.654 0-3-1.346-3-3zm4 27c-1.103 0-2-.897-2-2s.897-2 2-2c.43 0 .829.131 1.183.396.511.363.817.962.817 1.604 0 1.103-.897 2-2 2zm31 2c-.552 0-1-.448-1-1 0-.337.175-.657.48-.852.146-.098.321-.148.52-.148.552 0 1 .448 1 1s-.448 1-1 1zm14 2c-1.654 0-3-1.346-3-3s1.346-3 3-3c.575 0 1.134.165 1.621.481.863.553 1.379 1.495 1.379 2.519 0 1.654-1.346 3-3 3zm1.8-7.649c-.572-.223-1.178-.351-1.8-.351-2.414 0-4.434 1.721-4.899 4h-6.285c-.414-1.161-1.514-2-2.816-2-.236 0-.464.034-.686.085l-7.125-11.085 8.357-13h12.908l8.357 13zm-38.8-28.351h8v2h-8zm14 2h-4v-2h4zm-14 2h14v2h-14zm12 4h2v2h-2zm-4 0h2v2h-2zm-8 0h6v2h-6zm31 8h-8v-2h8zm2-2h4v2h-4zm-10 4h14v2h-14zm12 4h2v2h-2zm-4 0h2v2h-2zm-8 0h6v2h-6z" fill="url(#SVGID_1_)"/></svg>